<svg width="81" height="113" viewBox="0 0 81 113" fill="none" xmlns="http://www.w3.org/2000/svg">
<g filter="url(#filter0_d_1_3)">
<path d="M24.65 109H8.9C5.5 109 3.25 108.45 2.15 107.35C1.15 106.25 0.65 103.95 0.65 100.45V6.55C0.65 4.75 1.15 3.3 2.15 2.2C3.15 1.09999 4.45 0.549993 6.05 0.549993H24.65V109ZM30.65 0.549993H49.7C55.5 0.549993 60.05 0.999993 63.35 1.89999C66.75 2.79999 69.3 4.59999 71 7.3C72.7 9.9 73.75 12.85 74.15 16.15C74.65 19.35 74.9 23.9 74.9 29.8C74.9 35.7 74.65 40.2 74.15 43.3C73.75 46.4 72.7 49.3 71 52C69.4 54.7 66.85 56.6 63.35 57.7C59.95 58.8 55.4 59.35 49.7 59.35H30.65V45.1H41.75C44.35 45.1 46 44.75 46.7 44.05C47.5 43.35 47.9 42.25 47.9 40.75V19.3C47.9 17.7 47.5 16.55 46.7 15.85C46 15.15 44.35 14.8 41.75 14.8H30.65V0.549993ZM45.05 64H63.65C66.65 64 68.8 64.85 70.1 66.55C71.4 68.15 72.05 70.8 72.05 74.5V109H50.45C48.85 109 47.55 108.45 46.55 107.35C45.55 106.25 45.05 104.8 45.05 103V64Z" fill="#DE9E36"/>
</g>
<defs>
<filter id="filter0_d_1_3" x="0.649994" y="0.549988" width="80.25" height="112.45" filterUnits="userSpaceOnUse" color-interpolation-filters="sRGB">
<feFlood flood-opacity="0" result="BackgroundImageFix"/>
<feColorMatrix in="SourceAlpha" type="matrix" values="0 0 0 0 0 0 0 0 0 0 0 0 0 0 0 0 0 0 127 0" result="hardAlpha"/>
<feOffset dx="4" dy="2"/>
<feGaussianBlur stdDeviation="1"/>
<feComposite in2="hardAlpha" operator="out"/>
<feColorMatrix type="matrix" values="0 0 0 0 0 0 0 0 0 0 0 0 0 0 0 0 0 0 0.25 0"/>
<feBlend mode="normal" in2="BackgroundImageFix" result="effect1_dropShadow_1_3"/>
<feBlend mode="normal" in="SourceGraphic" in2="effect1_dropShadow_1_3" result="shape"/>
</filter>
</defs>
</svg>
