<svg width="144" height="65" viewBox="0 0 144 65" fill="none" xmlns="http://www.w3.org/2000/svg">
<path d="M3.52273 39V9.90909H13.3523C15.625 9.90909 17.4905 10.2973 18.9489 11.0739C20.4072 11.8409 21.4867 12.8968 22.1875 14.2415C22.8883 15.5862 23.2386 17.1155 23.2386 18.8295C23.2386 20.5436 22.8883 22.0634 22.1875 23.3892C21.4867 24.715 20.4119 25.7566 18.9631 26.5142C17.5142 27.2623 15.6629 27.6364 13.4091 27.6364H5.45455V24.4545H13.2955C14.8485 24.4545 16.0985 24.2273 17.0455 23.7727C18.0019 23.3182 18.6932 22.6742 19.1193 21.8409C19.5549 20.9981 19.7727 19.9943 19.7727 18.8295C19.7727 17.6648 19.5549 16.6468 19.1193 15.7756C18.6837 14.9044 17.9877 14.232 17.0312 13.7585C16.0748 13.2756 14.8106 13.0341 13.2386 13.0341H7.04545V39H3.52273ZM17.2159 25.9318L24.375 39H20.2841L13.2386 25.9318H17.2159ZM37.2834 39.4545C35.3137 39.4545 33.5855 38.9858 32.0987 38.0483C30.6214 37.1108 29.4661 35.7992 28.6328 34.1136C27.8089 32.428 27.397 30.4583 27.397 28.2045C27.397 25.9318 27.8089 23.9479 28.6328 22.2528C29.4661 20.5578 30.6214 19.2415 32.0987 18.304C33.5855 17.3665 35.3137 16.8977 37.2834 16.8977C39.2531 16.8977 40.9766 17.3665 42.4538 18.304C43.9406 19.2415 45.0959 20.5578 45.9197 22.2528C46.7531 23.9479 47.1697 25.9318 47.1697 28.2045C47.1697 30.4583 46.7531 32.428 45.9197 34.1136C45.0959 35.7992 43.9406 37.1108 42.4538 38.0483C40.9766 38.9858 39.2531 39.4545 37.2834 39.4545ZM37.2834 36.4432C38.7796 36.4432 40.0107 36.0597 40.9766 35.2926C41.9425 34.5256 42.6574 33.517 43.1214 32.267C43.5855 31.017 43.8175 29.6629 43.8175 28.2045C43.8175 26.7462 43.5855 25.3873 43.1214 24.1278C42.6574 22.8684 41.9425 21.8504 40.9766 21.0739C40.0107 20.2973 38.7796 19.9091 37.2834 19.9091C35.7872 19.9091 34.5561 20.2973 33.5902 21.0739C32.6243 21.8504 31.9093 22.8684 31.4453 24.1278C30.9813 25.3873 30.7493 26.7462 30.7493 28.2045C30.7493 29.6629 30.9813 31.017 31.4453 32.267C31.9093 33.517 32.6243 34.5256 33.5902 35.2926C34.5561 36.0597 35.7872 36.4432 37.2834 36.4432ZM66.0369 30.0795V17.1818H69.3892V39H66.0369V35.3068H65.8097C65.2983 36.4148 64.5028 37.357 63.4233 38.1335C62.3438 38.9006 60.9801 39.2841 59.3324 39.2841C57.9688 39.2841 56.7566 38.9858 55.696 38.3892C54.6354 37.7831 53.8021 36.8741 53.196 35.6619C52.59 34.4403 52.2869 32.9015 52.2869 31.0455V17.1818H55.6392V30.8182C55.6392 32.4091 56.0843 33.678 56.9744 34.625C57.8741 35.572 59.0199 36.0455 60.4119 36.0455C61.2453 36.0455 62.0928 35.8324 62.9545 35.4062C63.8258 34.9801 64.5549 34.3267 65.142 33.446C65.7386 32.5653 66.0369 31.4432 66.0369 30.0795ZM85.0178 17.1818V20.0227H73.7109V17.1818H85.0178ZM77.0064 11.9545H80.3587V32.75C80.3587 33.697 80.496 34.4072 80.7706 34.8807C81.0547 35.3447 81.4145 35.6572 81.8501 35.8182C82.2952 35.9697 82.764 36.0455 83.2564 36.0455C83.6257 36.0455 83.9287 36.0265 84.1655 35.9886C84.4022 35.9413 84.5916 35.9034 84.7337 35.875L85.4155 38.8864C85.1882 38.9716 84.871 39.0568 84.4638 39.142C84.0566 39.2367 83.5405 39.2841 82.9155 39.2841C81.9685 39.2841 81.0405 39.0805 80.1314 38.6733C79.2318 38.2661 78.4837 37.6458 77.8871 36.8125C77.3 35.9792 77.0064 34.928 77.0064 33.6591V11.9545ZM90.0604 39V17.1818H93.4126V39H90.0604ZM91.7649 13.5455C91.1115 13.5455 90.5481 13.3229 90.0746 12.8778C89.6106 12.4328 89.3786 11.8977 89.3786 11.2727C89.3786 10.6477 89.6106 10.1127 90.0746 9.66761C90.5481 9.22254 91.1115 9 91.7649 9C92.4183 9 92.977 9.22254 93.4411 9.66761C93.9145 10.1127 94.1513 10.6477 94.1513 11.2727C94.1513 11.8977 93.9145 12.4328 93.4411 12.8778C92.977 13.3229 92.4183 13.5455 91.7649 13.5455ZM102.905 25.875V39H99.5526V17.1818H102.791V20.5909H103.075C103.587 19.483 104.363 18.5928 105.405 17.9205C106.446 17.2386 107.791 16.8977 109.439 16.8977C110.916 16.8977 112.209 17.2008 113.317 17.8068C114.425 18.4034 115.286 19.3125 115.902 20.5341C116.518 21.7462 116.825 23.2803 116.825 25.1364V39H113.473V25.3636C113.473 23.6496 113.028 22.3144 112.138 21.358C111.248 20.392 110.026 19.9091 108.473 19.9091C107.403 19.9091 106.446 20.1411 105.604 20.6051C104.77 21.0691 104.112 21.7462 103.629 22.6364C103.146 23.5265 102.905 24.6061 102.905 25.875ZM132.099 39.4545C129.996 39.4545 128.183 38.9905 126.658 38.0625C125.143 37.125 123.974 35.8182 123.15 34.142C122.335 32.4564 121.928 30.4962 121.928 28.2614C121.928 26.0265 122.335 24.0568 123.15 22.3523C123.974 20.6383 125.12 19.303 126.587 18.3466C128.065 17.3807 129.788 16.8977 131.758 16.8977C132.894 16.8977 134.016 17.0871 135.124 17.4659C136.232 17.8447 137.241 18.4602 138.15 19.3125C139.059 20.1553 139.783 21.2727 140.323 22.6648C140.863 24.0568 141.133 25.7708 141.133 27.8068V29.2273H124.315V26.3295H137.724C137.724 25.0985 137.478 24 136.985 23.0341C136.502 22.0682 135.811 21.3059 134.911 20.7472C134.021 20.1884 132.97 19.9091 131.758 19.9091C130.423 19.9091 129.267 20.2405 128.292 20.9034C127.326 21.5568 126.583 22.4091 126.062 23.4602C125.541 24.5114 125.281 25.6383 125.281 26.8409V28.7727C125.281 30.4205 125.565 31.8172 126.133 32.9631C126.71 34.0994 127.511 34.9659 128.533 35.5625C129.556 36.1496 130.745 36.4432 132.099 36.4432C132.979 36.4432 133.775 36.3201 134.485 36.0739C135.205 35.8182 135.825 35.4394 136.346 34.9375C136.867 34.4261 137.269 33.7917 137.553 33.0341L140.792 33.9432C140.451 35.0417 139.878 36.0076 139.073 36.8409C138.268 37.6648 137.274 38.3087 136.09 38.7727C134.906 39.2273 133.576 39.4545 132.099 39.4545Z" fill="#04E372"/>
<path d="M23.2869 52.8182C23.223 52.2784 22.9638 51.8594 22.5092 51.5611C22.0547 51.2628 21.4972 51.1136 20.8366 51.1136C20.3537 51.1136 19.9311 51.1918 19.5689 51.348C19.2102 51.5043 18.9297 51.7191 18.7273 51.9925C18.5284 52.266 18.429 52.5767 18.429 52.9247C18.429 53.2159 18.4982 53.4663 18.6367 53.6758C18.7788 53.8817 18.9599 54.054 19.18 54.1925C19.4002 54.3274 19.631 54.4393 19.8725 54.5281C20.114 54.6133 20.3359 54.6825 20.5384 54.7358L21.6463 55.0341C21.9304 55.1087 22.2464 55.2116 22.5945 55.343C22.946 55.4744 23.2816 55.6538 23.6012 55.881C23.9244 56.1048 24.1907 56.3924 24.4002 56.744C24.6097 57.0955 24.7145 57.527 24.7145 58.0384C24.7145 58.6278 24.56 59.1605 24.2511 59.6364C23.9457 60.1122 23.4982 60.4904 22.9087 60.771C22.3228 61.0515 21.6108 61.1918 20.7727 61.1918C19.9915 61.1918 19.315 61.0657 18.7433 60.8136C18.1751 60.5614 17.7276 60.2099 17.4009 59.7589C17.0778 59.3079 16.8949 58.7841 16.8523 58.1875H18.2159C18.2514 58.5994 18.3899 58.9403 18.6314 59.2102C18.8764 59.4766 19.1854 59.6754 19.5582 59.8068C19.9347 59.9347 20.3395 59.9986 20.7727 59.9986C21.277 59.9986 21.7298 59.9169 22.131 59.7536C22.5323 59.5866 22.8501 59.3558 23.0845 59.0611C23.3189 58.7628 23.4361 58.4148 23.4361 58.017C23.4361 57.6548 23.3349 57.3601 23.1325 57.1328C22.93 56.9055 22.6637 56.7209 22.3335 56.5788C22.0032 56.4368 21.6463 56.3125 21.2628 56.206L19.9205 55.8224C19.0682 55.5774 18.3935 55.2276 17.8963 54.7731C17.3991 54.3185 17.1506 53.7237 17.1506 52.9886C17.1506 52.3778 17.3157 51.8452 17.646 51.3906C17.9798 50.9325 18.4272 50.5774 18.9883 50.3253C19.5529 50.0696 20.1832 49.9418 20.8793 49.9418C21.5824 49.9418 22.2074 50.0678 22.7543 50.32C23.3011 50.5685 23.7344 50.9094 24.054 51.3427C24.3771 51.7759 24.5476 52.2678 24.5653 52.8182H23.2869ZM26.716 64.0682V52.8182H27.9305V54.1179H28.0796C28.172 53.9759 28.2998 53.7947 28.4632 53.5746C28.6301 53.3509 28.868 53.152 29.1769 52.978C29.4894 52.8004 29.912 52.7116 30.4447 52.7116C31.1336 52.7116 31.7409 52.8839 32.2664 53.2283C32.792 53.5728 33.2021 54.0611 33.4969 54.6932C33.7916 55.3253 33.939 56.071 33.939 56.9304C33.939 57.7969 33.7916 58.5479 33.4969 59.1836C33.2021 59.8157 32.7938 60.3058 32.2718 60.6538C31.7497 60.9982 31.1478 61.1705 30.466 61.1705C29.9404 61.1705 29.5196 61.0835 29.2036 60.9094C28.8875 60.7319 28.6443 60.5312 28.4738 60.3075C28.3034 60.0803 28.172 59.892 28.0796 59.7429H27.9731V64.0682H26.716ZM27.9518 56.9091C27.9518 57.527 28.0423 58.0721 28.2235 58.5444C28.4046 59.0131 28.6691 59.3807 29.0171 59.647C29.3651 59.9098 29.7913 60.0412 30.2955 60.0412C30.8211 60.0412 31.2597 59.9027 31.6112 59.6257C31.9664 59.3452 32.2327 58.9687 32.4102 58.4964C32.5914 58.0206 32.6819 57.4915 32.6819 56.9091C32.6819 56.3338 32.5931 55.8153 32.4156 55.3537C32.2416 54.8885 31.977 54.521 31.6219 54.2511C31.2703 53.9776 30.8282 53.8409 30.2955 53.8409C29.7842 53.8409 29.3545 53.9705 29.0065 54.2298C28.6585 54.4854 28.3957 54.8441 28.2181 55.3058C28.0406 55.7638 27.9518 56.2983 27.9518 56.9091ZM35.8566 61V52.8182H37.0711V54.054H37.1563C37.3055 53.6491 37.5754 53.3207 37.966 53.0685C38.3566 52.8164 38.797 52.6903 39.287 52.6903C39.3794 52.6903 39.4948 52.6921 39.6333 52.6957C39.7718 52.6992 39.8765 52.7045 39.9475 52.7116V53.9901C39.9049 53.9794 39.8073 53.9634 39.6546 53.9421C39.5054 53.9173 39.3474 53.9048 39.1805 53.9048C38.7828 53.9048 38.4276 53.9883 38.1151 54.1552C37.8062 54.3185 37.5612 54.5458 37.3801 54.837C37.2025 55.1246 37.1137 55.4531 37.1137 55.8224V61H35.8566ZM41.4377 61V52.8182H42.6948V61H41.4377ZM42.0769 51.4545C41.8319 51.4545 41.6206 51.3711 41.443 51.2042C41.269 51.0373 41.182 50.8366 41.182 50.6023C41.182 50.3679 41.269 50.1673 41.443 50.0004C41.6206 49.8335 41.8319 49.75 42.0769 49.75C42.3219 49.75 42.5314 49.8335 42.7054 50.0004C42.883 50.1673 42.9718 50.3679 42.9718 50.6023C42.9718 50.8366 42.883 51.0373 42.7054 51.2042C42.5314 51.3711 42.3219 51.4545 42.0769 51.4545ZM46.2544 56.0781V61H44.9972V52.8182H46.2117V54.0966H46.3183C46.51 53.6811 46.8012 53.3473 47.1919 53.0952C47.5825 52.8395 48.0867 52.7116 48.7046 52.7116C49.2586 52.7116 49.7433 52.8253 50.1588 53.0526C50.5743 53.2763 50.8975 53.6172 51.1283 54.0753C51.3591 54.5298 51.4745 55.1051 51.4745 55.8011V61H50.2174V55.8864C50.2174 55.2436 50.0505 54.7429 49.7167 54.3842C49.3829 54.022 48.9248 53.8409 48.3424 53.8409C47.9411 53.8409 47.5825 53.9279 47.2664 54.1019C46.9539 54.2759 46.7071 54.5298 46.526 54.8636C46.3449 55.1974 46.2544 55.6023 46.2544 56.0781ZM57.0742 64.2386C56.467 64.2386 55.945 64.1605 55.5082 64.0043C55.0714 63.8516 54.7074 63.6491 54.4162 63.397C54.1286 63.1484 53.8995 62.8821 53.729 62.598L54.7305 61.8949C54.8441 62.044 54.9879 62.2145 55.1619 62.4062C55.3359 62.6016 55.5739 62.7702 55.8757 62.9123C56.1811 63.0579 56.5806 63.1307 57.0742 63.1307C57.7347 63.1307 58.2798 62.9709 58.7095 62.6513C59.1392 62.3317 59.354 61.831 59.354 61.1491V59.4872H59.2475C59.1552 59.6364 59.0238 59.821 58.8533 60.0412C58.6864 60.2578 58.445 60.4513 58.1289 60.6218C57.8164 60.7887 57.3938 60.8722 56.8612 60.8722C56.2006 60.8722 55.6076 60.7159 55.082 60.4034C54.56 60.0909 54.1463 59.6364 53.8409 59.0398C53.5391 58.4432 53.3881 57.7187 53.3881 56.8665C53.3881 56.0284 53.5355 55.2987 53.8303 54.6772C54.125 54.0522 54.5352 53.5692 55.0607 53.2283C55.5863 52.8839 56.1935 52.7116 56.8825 52.7116C57.4151 52.7116 57.8377 52.8004 58.1502 52.978C58.4663 53.152 58.7077 53.3509 58.8746 53.5746C59.0451 53.7947 59.1765 53.9759 59.2688 54.1179H59.3967V52.8182H60.6112V61.2344C60.6112 61.9375 60.4513 62.5092 60.1317 62.9496C59.8157 63.3935 59.3896 63.7184 58.8533 63.9244C58.3207 64.1339 57.7276 64.2386 57.0742 64.2386ZM57.0316 59.7429C57.5359 59.7429 57.962 59.6275 58.31 59.3967C58.658 59.1658 58.9226 58.8338 59.1037 58.4006C59.2848 57.9673 59.3754 57.4489 59.3754 56.8452C59.3754 56.2557 59.2866 55.7354 59.109 55.2844C58.9315 54.8335 58.6687 54.4801 58.3207 54.2244C57.9727 53.9687 57.543 53.8409 57.0316 53.8409C56.4989 53.8409 56.055 53.9759 55.6999 54.2457C55.3484 54.5156 55.0838 54.8778 54.9062 55.3324C54.7322 55.7869 54.6452 56.2912 54.6452 56.8452C54.6452 57.4134 54.734 57.9158 54.9116 58.3526C55.0927 58.7859 55.359 59.1268 55.7106 59.3754C56.0657 59.6204 56.506 59.7429 57.0316 59.7429ZM67.1097 61V60.0412L70.7106 56.0994C71.1332 55.6378 71.4812 55.2365 71.7546 54.8956C72.0281 54.5511 72.2305 54.228 72.3619 53.9261C72.4968 53.6207 72.5643 53.3011 72.5643 52.9673C72.5643 52.5838 72.4719 52.2518 72.2873 51.9712C72.1062 51.6907 71.8576 51.4741 71.5415 51.3214C71.2255 51.1687 70.8704 51.0923 70.4762 51.0923C70.0572 51.0923 69.6914 51.1793 69.3789 51.3533C69.07 51.5238 68.8303 51.7635 68.6598 52.0724C68.4929 52.3814 68.4094 52.7436 68.4094 53.1591H67.1523C67.1523 52.5199 67.2997 51.9588 67.5945 51.4759C67.8892 50.9929 68.2905 50.6165 68.7983 50.3466C69.3097 50.0767 69.8832 49.9418 70.5188 49.9418C71.158 49.9418 71.7244 50.0767 72.218 50.3466C72.7116 50.6165 73.0987 50.9805 73.3793 51.4386C73.6598 51.8967 73.8001 52.4062 73.8001 52.9673C73.8001 53.3686 73.7273 53.761 73.5817 54.1445C73.4396 54.5245 73.1911 54.9489 72.8359 55.4176C72.4844 55.8828 71.9961 56.451 71.3711 57.1222L68.9208 59.7429V59.8281H73.9918V61H67.1097ZM79.8778 61.1491C79.1747 61.1491 78.5479 61.0284 77.9975 60.7869C77.4506 60.5455 77.0156 60.2099 76.6925 59.7802C76.3729 59.3469 76.1989 58.8445 76.1705 58.2727H77.5128C77.5412 58.6243 77.6619 58.9279 77.875 59.1836C78.0881 59.4357 78.3668 59.631 78.7113 59.7695C79.0558 59.908 79.4375 59.9773 79.8565 59.9773C80.3253 59.9773 80.7408 59.8956 81.103 59.7322C81.4652 59.5689 81.7493 59.3416 81.9553 59.0504C82.1612 58.7592 82.2642 58.4219 82.2642 58.0384C82.2642 57.6371 82.1648 57.2837 81.9659 56.9783C81.767 56.6694 81.4759 56.4279 81.0923 56.2539C80.7088 56.0799 80.2401 55.9929 79.6861 55.9929H78.8125V54.821H79.6861C80.1193 54.821 80.4993 54.7429 80.826 54.5866C81.1563 54.4304 81.4137 54.2102 81.5984 53.9261C81.7866 53.642 81.8807 53.3082 81.8807 52.9247C81.8807 52.5554 81.799 52.234 81.6357 51.9606C81.4723 51.6871 81.2415 51.4741 80.9432 51.3214C80.6484 51.1687 80.3004 51.0923 79.8991 51.0923C79.5227 51.0923 79.1676 51.1616 78.8338 51.3001C78.5036 51.435 78.2337 51.6321 78.0241 51.8913C77.8146 52.147 77.701 52.456 77.6832 52.8182H76.4048C76.4261 52.2464 76.5984 51.7457 76.9215 51.3161C77.2447 50.8828 77.6673 50.5455 78.1893 50.304C78.7148 50.0625 79.2919 49.9418 79.9205 49.9418C80.5952 49.9418 81.174 50.0785 81.657 50.3519C82.1399 50.6218 82.511 50.9787 82.7702 51.4226C83.0295 51.8665 83.1591 52.3459 83.1591 52.8608C83.1591 53.4751 82.9975 53.9989 82.6744 54.4322C82.3548 54.8654 81.9197 55.1655 81.3693 55.3324V55.4176C82.0582 55.5312 82.5962 55.8242 82.9833 56.2965C83.3704 56.7653 83.5639 57.3459 83.5639 58.0384C83.5639 58.6314 83.4023 59.1641 83.0792 59.6364C82.7596 60.1051 82.3228 60.4744 81.7688 60.7443C81.2148 61.0142 80.5845 61.1491 79.8778 61.1491ZM91.815 46.5753V64.5156H90.7496V46.5753H91.815ZM108.057 53.5H106.736C106.658 53.12 106.522 52.7862 106.326 52.4986C106.134 52.2109 105.9 51.9695 105.623 51.7741C105.35 51.5753 105.046 51.4261 104.712 51.3267C104.378 51.2273 104.03 51.1776 103.668 51.1776C103.008 51.1776 102.409 51.3445 101.873 51.6783C101.34 52.0121 100.916 52.5039 100.6 53.1538C100.288 53.8036 100.131 54.6009 100.131 55.5455C100.131 56.4901 100.288 57.2873 100.6 57.9371C100.916 58.587 101.34 59.0788 101.873 59.4126C102.409 59.7464 103.008 59.9134 103.668 59.9134C104.03 59.9134 104.378 59.8636 104.712 59.7642C105.046 59.6648 105.35 59.5174 105.623 59.3221C105.9 59.1232 106.134 58.88 106.326 58.5923C106.522 58.3011 106.658 57.9673 106.736 57.5909H108.057C107.958 58.1484 107.777 58.6474 107.514 59.0877C107.251 59.5281 106.925 59.9027 106.534 60.2116C106.143 60.517 105.705 60.7496 105.218 60.9094C104.735 61.0692 104.219 61.1491 103.668 61.1491C102.738 61.1491 101.91 60.9219 101.186 60.4673C100.462 60.0128 99.8916 59.3665 99.4761 58.5284C99.0606 57.6903 98.8529 56.696 98.8529 55.5455C98.8529 54.3949 99.0606 53.4006 99.4761 52.5625C99.8916 51.7244 100.462 51.0781 101.186 50.6236C101.91 50.169 102.738 49.9418 103.668 49.9418C104.219 49.9418 104.735 50.0217 105.218 50.1815C105.705 50.3413 106.143 50.5756 106.534 50.8846C106.925 51.19 107.251 51.5629 107.514 52.0032C107.777 52.44 107.958 52.9389 108.057 53.5ZM116.158 52.8182C116.094 52.2784 115.835 51.8594 115.38 51.5611C114.926 51.2628 114.368 51.1136 113.708 51.1136C113.225 51.1136 112.802 51.1918 112.44 51.348C112.081 51.5043 111.801 51.7191 111.598 51.9925C111.4 52.266 111.3 52.5767 111.3 52.9247C111.3 53.2159 111.369 53.4663 111.508 53.6758C111.65 53.8817 111.831 54.054 112.051 54.1925C112.271 54.3274 112.502 54.4393 112.744 54.5281C112.985 54.6133 113.207 54.6825 113.409 54.7358L114.517 55.0341C114.801 55.1087 115.118 55.2116 115.466 55.343C115.817 55.4744 116.153 55.6538 116.472 55.881C116.795 56.1048 117.062 56.3924 117.271 56.744C117.481 57.0955 117.586 57.527 117.586 58.0384C117.586 58.6278 117.431 59.1605 117.122 59.6364C116.817 60.1122 116.369 60.4904 115.78 60.771C115.194 61.0515 114.482 61.1918 113.644 61.1918C112.863 61.1918 112.186 61.0657 111.614 60.8136C111.046 60.5614 110.599 60.2099 110.272 59.7589C109.949 59.3079 109.766 58.7841 109.723 58.1875H111.087C111.123 58.5994 111.261 58.9403 111.502 59.2102C111.748 59.4766 112.056 59.6754 112.429 59.8068C112.806 59.9347 113.211 59.9986 113.644 59.9986C114.148 59.9986 114.601 59.9169 115.002 59.7536C115.403 59.5866 115.721 59.3558 115.956 59.0611C116.19 58.7628 116.307 58.4148 116.307 58.017C116.307 57.6548 116.206 57.3601 116.004 57.1328C115.801 56.9055 115.535 56.7209 115.205 56.5788C114.874 56.4368 114.517 56.3125 114.134 56.206L112.792 55.8224C111.939 55.5774 111.265 55.2276 110.767 54.7731C110.27 54.3185 110.022 53.7237 110.022 52.9886C110.022 52.3778 110.187 51.8452 110.517 51.3906C110.851 50.9325 111.298 50.5774 111.859 50.3253C112.424 50.0696 113.054 49.9418 113.75 49.9418C114.453 49.9418 115.078 50.0678 115.625 50.32C116.172 50.5685 116.605 50.9094 116.925 51.3427C117.248 51.7759 117.419 52.2678 117.436 52.8182H116.158ZM119.758 61V50.0909H126.341V51.2628H121.079V54.9489H126V56.1207H121.079V59.8281H126.427V61H119.758Z" fill="white" fill-opacity="0.4"/>
</svg>
